<?xml version="1.0" standalone="no"?><!DOCTYPE svg PUBLIC "-//W3C//DTD SVG 1.1//EN" "http://www.w3.org/Graphics/SVG/1.1/DTD/svg11.dtd"><svg class="icon" width="16px" height="16.00px" viewBox="0 0 1024 1024" version="1.1" xmlns="http://www.w3.org/2000/svg"><path fill="#d4237a" d="M117.5 73.1l833.4 833.4c12.2 12.2 12.2 32.1 0 44.3-12.2 12.2-32.1 12.2-44.3 0L73.1 117.5C61 105.3 61 85.3 73.1 73.1c12.2-12.1 32.2-12.1 44.4 0z"  /><path fill="#d4237a" d="M950.9 117.5L117.5 950.9c-12.2 12.2-32.1 12.2-44.3 0-12.2-12.2-12.2-32.1 0-44.3L906.5 73.1c12.2-12.2 32.1-12.2 44.3 0 12.2 12.2 12.2 32.2 0.1 44.4z"  /></svg>